<?xml version="1.0" encoding="UTF-8" standalone="no"?>
<!DOCTYPE svg PUBLIC "-//W3C//DTD SVG 1.1//EN" "http://www.w3.org/Graphics/SVG/1.1/DTD/svg11.dtd">
<svg version="1.1" xmlns="http://www.w3.org/2000/svg" xmlns:xlink="http://www.w3.org/1999/xlink" preserveAspectRatio="xMidYMid meet" viewBox="0 0 640 640" width="640" height="640"><defs><path d="M322.97 14.74L323.91 14.83L324.84 14.96L325.76 15.12L326.68 15.32L327.6 15.56L328.5 15.82L329.4 16.13L330.28 16.47L331.16 16.84L332.02 17.26L332.87 17.7L333.7 18.18L334.52 18.7L335.32 19.25L336.11 19.84L336.87 20.47L337.61 21.13L338.34 21.82L377.63 61.11L473.16 61.11L473.47 61.12L473.76 61.13L474.06 61.16L474.35 61.21L474.64 61.26L474.92 61.32L475.2 61.4L475.48 61.48L475.75 61.58L476.01 61.69L476.27 61.8L476.53 61.93L476.78 62.06L477.02 62.21L477.26 62.36L477.49 62.52L477.71 62.69L477.93 62.87L478.14 63.06L478.34 63.25L478.53 63.46L478.72 63.67L478.9 63.88L479.07 64.11L479.23 64.34L479.38 64.57L479.53 64.82L479.66 65.06L479.79 65.32L479.9 65.58L480.01 65.84L480.11 66.11L480.19 66.39L480.27 66.67L480.33 66.95L480.38 67.24L480.42 67.53L480.45 67.83L480.47 68.12L480.48 68.43L480.48 158.08L482.34 159.66L484.22 161.24L486.09 162.81L487.97 164.38L489.86 165.96L491.75 167.52L493.64 169.09L495.54 170.65L497.44 172.21L499.35 173.76L501.26 175.31L503.18 176.86L505.1 178.41L507.02 179.95L508.95 181.49L510.88 183.03L512.82 184.56L514.76 186.09L516.7 187.61L518.65 189.14L520.6 190.65L522.56 192.17L524.52 193.68L526.48 195.19L528.44 196.69L530.41 198.19L532.39 199.68L534.36 201.17L536.34 202.66L538.32 204.15L540.31 205.62L542.3 207.1L544.29 208.57L546.28 210.04L548.28 211.5L550.28 212.95L552.28 214.41L554.29 215.86L556.3 217.3L558.31 218.74L558.32 218.75L558.33 218.76L558.34 218.77L558.35 218.77L558.36 218.78L558.37 218.79L558.38 218.8L558.39 218.81L558.4 218.82L558.41 218.83L558.42 218.84L558.43 218.85L558.44 218.86L558.45 218.87L558.46 218.88L558.47 218.89L558.47 218.91L558.48 218.92L558.49 218.93L558.51 218.95L558.53 218.97L558.54 218.99L558.55 219L558.56 219.01L558.57 219.02L558.58 219.03L558.59 219.04L558.6 219.06L558.6 219.07L558.61 219.08L558.62 219.09L558.63 219.1L558.64 219.11L558.65 219.12L558.66 219.12L558.67 219.13L558.68 219.14L558.71 219.16L558.73 219.18L558.76 219.2L558.78 219.23L558.8 219.25L558.83 219.27L558.85 219.29L558.88 219.31L558.9 219.33L558.92 219.35L558.94 219.37L558.97 219.39L558.99 219.41L559.01 219.43L559.04 219.46L559.06 219.48L559.08 219.5L559.1 219.52L559.13 219.54L559.15 219.56L559.17 219.59L559.19 219.61L559.21 219.63L559.23 219.65L559.26 219.67L559.28 219.7L559.3 219.72L559.32 219.74L559.34 219.76L559.36 219.79L559.38 219.81L559.4 219.83L559.43 219.86L559.45 219.88L559.47 219.9L559.49 219.93L559.51 219.95L559.53 219.97L559.55 220L559.57 220.02L559.58 220.03L559.59 220.04L559.6 220.05L559.61 220.06L559.62 220.07L559.63 220.08L559.64 220.09L559.65 220.1L559.66 220.11L559.67 220.12L559.68 220.13L559.69 220.14L559.7 220.15L559.71 220.16L559.72 220.16L559.75 220.18L559.79 220.22L559.81 220.23L559.82 220.24L559.83 220.25L559.84 220.26L559.85 220.27L559.86 220.28L559.87 220.29L559.88 220.3L559.89 220.3L559.9 220.31L559.91 220.32L559.92 220.33L559.93 220.34L559.94 220.36L559.95 220.37L559.96 220.38L559.97 220.39L559.98 220.4L559.98 220.41L559.99 220.41L559.99 220.42L559.99 220.42L560 220.43L560 220.44L560 220.44L560.01 220.45L560.01 220.46L560.02 220.47L560.02 220.47L560.02 220.49L560.03 220.5L560.03 220.51L560.04 220.52L560.05 220.55L560.05 220.57L560.06 220.58L560.06 220.59L560.07 220.6L560.07 220.62L560.08 220.62L560.08 220.63L560.08 220.63L560.09 220.64L560.09 220.65L560.09 220.65L560.11 220.67L560.12 220.69L560.13 220.71L560.14 220.72L560.15 220.74L560.16 220.76L560.17 220.78L560.18 220.79L560.19 220.81L560.2 220.83L560.21 220.85L560.22 220.86L560.23 220.88L560.24 220.9L560.25 220.92L560.26 220.93L560.27 220.95L560.28 220.97L560.29 220.99L560.3 221.01L560.31 221.02L560.31 221.04L560.33 221.08L560.34 221.1L560.35 221.11L560.36 221.13L560.4 221.22L560.42 221.26L560.43 221.28L560.45 221.31L560.46 221.33L560.47 221.35L560.48 221.37L560.49 221.4L560.51 221.42L560.52 221.45L560.53 221.48L560.55 221.5L560.56 221.53L560.57 221.56L560.58 221.58L560.6 221.61L560.61 221.64L560.62 221.66L560.63 221.69L560.64 221.72L560.65 221.74L560.67 221.77L560.68 221.8L560.69 221.83L560.7 221.85L560.71 221.88L560.72 221.91L560.73 221.94L560.74 221.96L560.75 221.99L560.76 222.02L560.77 222.05L560.78 222.07L560.79 222.1L560.8 222.13L560.81 222.16L560.82 222.19L560.83 222.21L560.84 222.24L560.85 222.27L560.86 222.3L560.87 222.33L560.88 222.36L560.89 222.38L560.9 222.41L560.91 222.44L560.92 222.47L560.93 222.49L560.93 222.51L560.94 222.53L560.95 222.55L560.95 222.57L560.96 222.59L560.97 222.61L560.98 222.63L560.98 222.65L560.99 222.67L561 222.69L561.01 222.73L561.03 222.77L561.04 222.81L561.05 222.83L561.06 222.85L561.06 222.87L561.07 222.89L561.08 222.91L561.09 222.93L561.09 222.94L561.1 222.96L561.11 222.98L561.11 223L561.12 223.02L561.13 223.04L561.13 223.06L561.14 223.08L561.15 223.1L561.15 223.12L561.16 223.14L561.16 223.16L561.17 223.18L561.17 223.2L561.18 223.22L561.18 223.24L561.19 223.27L561.19 223.29L561.19 223.31L561.2 223.33L561.2 223.35L561.21 223.37L561.21 223.39L561.21 223.42L561.21 223.44L561.22 223.46L561.22 223.48L561.22 223.5L561.22 223.52L561.22 223.54L561.23 223.57L561.23 223.59L561.23 223.61L561.23 223.63L561.23 223.65L561.23 223.67L561.23 223.7L561.23 223.72L561.24 223.74L561.24 223.76L561.24 223.8L561.24 223.85L561.24 223.89L561.24 223.93L561.24 223.95L561.24 223.98L561.25 224L561.25 224.02L561.25 224.04L561.25 224.06L561.25 224.08L561.25 224.11L561.25 224.13L561.25 224.14L561.26 224.16L561.26 224.17L561.26 224.19L561.26 224.2L561.27 224.21L561.27 224.23L561.27 224.24L561.27 224.25L561.28 224.27L561.28 224.28L561.28 224.29L561.29 224.31L561.29 224.32L561.3 224.34L561.3 224.36L561.31 224.38L561.31 224.39L561.32 224.42L561.32 224.43L561.33 224.44L561.33 224.46L561.33 224.47L561.34 224.48L561.34 224.5L561.34 224.51L561.35 224.52L561.35 224.54L561.35 224.55L561.35 224.56L561.36 224.58L561.36 224.59L561.36 224.61L561.36 224.62L561.36 224.64L561.36 224.65L561.36 224.66L561.36 224.68L561.36 490.04L561.36 490.06L561.36 490.08L561.36 490.1L561.36 490.11L561.36 490.13L561.36 490.15L561.35 490.17L561.35 490.19L561.35 490.21L561.35 490.22L561.34 490.24L561.34 490.26L561.33 490.28L561.33 490.3L561.33 490.31L561.32 490.33L561.32 490.35L561.31 490.37L561.31 490.38L561.3 490.4L561.3 490.42L561.28 490.47L561.28 490.49L561.27 490.51L561.27 490.53L561.26 490.54L561.26 490.56L561.25 490.58L561.25 490.6L561.24 490.61L561.24 490.63L561.24 490.65L561.23 490.67L561.23 490.69L561.23 490.71L561.22 490.72L561.22 490.74L561.22 490.76L561.21 490.8L561.21 490.84L561.21 490.88L561.2 490.92L561.2 490.96L561.19 491L561.19 491.03L561.18 491.07L561.18 491.11L561.17 491.15L561.17 491.19L561.16 491.23L561.15 491.27L561.15 491.3L561.14 491.34L561.14 491.38L561.13 491.42L561.12 491.46L561.12 491.49L561.11 491.53L561.1 491.57L561.09 491.61L561.08 491.65L561.08 491.68L561.07 491.72L561.06 491.76L561.05 491.8L561.04 491.84L561.03 491.87L561.02 491.91L561.01 491.95L561 491.99L560.99 492.03L560.98 492.06L560.97 492.1L560.96 492.14L560.95 492.18L560.93 492.22L560.92 492.25L560.91 492.29L560.9 492.33L560.89 492.36L560.87 492.4L560.86 492.43L560.85 492.47L560.84 492.5L560.82 492.54L560.81 492.57L560.8 492.61L560.78 492.64L560.77 492.67L560.76 492.71L560.74 492.74L560.73 492.77L560.71 492.81L560.7 492.84L560.68 492.87L560.67 492.91L560.65 492.94L560.64 492.97L560.62 493L560.61 493.04L560.59 493.07L560.58 493.1L560.56 493.13L560.54 493.17L560.53 493.2L560.51 493.23L560.49 493.26L560.48 493.3L560.46 493.33L560.44 493.36L560.42 493.39L560.41 493.42L560.39 493.46L560.37 493.49L560.35 493.52L560.34 493.55L560.32 493.58L560.3 493.62L560.29 493.63L560.28 493.65L560.27 493.67L560.26 493.69L560.25 493.7L560.24 493.72L560.24 493.74L560.23 493.76L560.22 493.78L560.21 493.8L560.21 493.81L560.2 493.83L560.19 493.85L560.18 493.87L560.18 493.89L560.17 493.91L560.16 493.94L560.15 493.96L560.14 493.98L560.14 494L560.13 494.02L560.12 494.04L560.11 494.06L560.11 494.07L560.1 494.09L560.09 494.11L560.08 494.13L560.08 494.15L560.07 494.16L560.06 494.18L560.05 494.2L560.04 494.22L560.03 494.24L560.02 494.25L560.01 494.27L560 494.29L559.99 494.31L559.98 494.32L559.96 494.34L559.96 494.35L559.95 494.36L559.94 494.37L559.93 494.38L559.93 494.38L559.92 494.39L559.91 494.4L559.9 494.41L559.89 494.42L559.88 494.42L559.87 494.43L559.86 494.44L559.86 494.45L559.85 494.45L559.84 494.46L559.83 494.47L559.82 494.47L559.81 494.48L559.8 494.49L559.76 494.51L559.75 494.52L559.73 494.53L559.72 494.54L559.71 494.54L559.7 494.55L559.69 494.56L559.69 494.57L559.68 494.57L559.67 494.58L559.66 494.59L559.65 494.6L559.64 494.6L559.63 494.61L559.62 494.62L559.62 494.63L559.61 494.64L559.57 494.69L559.53 494.73L559.49 494.78L559.45 494.83L559.41 494.87L559.37 494.92L559.32 494.96L559.28 495L559.24 495.05L559.2 495.09L559.15 495.13L559.11 495.18L559.07 495.22L559.02 495.26L558.98 495.3L558.93 495.34L558.89 495.38L558.84 495.42L558.79 495.46L558.75 495.5L558.7 495.54L558.65 495.58L558.61 495.61L558.56 495.65L558.51 495.69L558.46 495.73L558.41 495.76L558.36 495.8L558.31 495.83L558.26 495.87L558.21 495.9L558.16 495.94L558.11 495.97L558.06 496.01L558.01 496.04L557.96 496.08L557.91 496.11L557.85 496.14L557.8 496.17L557.75 496.21L557.73 496.22L557.72 496.22L557.7 496.23L557.69 496.24L557.67 496.25L557.66 496.26L557.64 496.28L557.63 496.29L557.61 496.3L557.6 496.31L557.58 496.32L557.57 496.33L557.55 496.34L557.52 496.36L557.48 496.39L557.45 496.42L557.44 496.43L557.42 496.44L557.41 496.45L557.4 496.46L557.38 496.47L557.37 496.48L557.35 496.49L557.34 496.5L557.32 496.51L557.31 496.52L557.29 496.53L557.28 496.54L557.26 496.55L557.25 496.56L557.23 496.57L557.22 496.58L557.2 496.58L557.18 496.59L557.17 496.6L557.15 496.61L557.08 496.64L557.01 496.67L556.94 496.71L556.86 496.74L556.79 496.77L556.72 496.8L556.65 496.83L556.57 496.86L556.5 496.89L556.42 496.91L556.35 496.94L556.28 496.97L556.2 496.99L556.12 497.02L556.05 497.04L555.97 497.06L555.9 497.09L555.82 497.11L555.74 497.13L555.67 497.15L555.59 497.17L555.51 497.19L555.43 497.2L555.35 497.22L555.27 497.24L555.19 497.25L555.11 497.26L555.03 497.28L554.95 497.29L554.87 497.3L554.79 497.31L554.71 497.32L554.63 497.33L554.55 497.33L554.47 497.34L554.38 497.34L554.3 497.35L554.22 497.35L554.13 497.35L554.05 497.35L85.94 497.35L85.85 497.35L85.77 497.35L85.68 497.35L85.6 497.34L85.52 497.34L85.43 497.33L85.35 497.33L85.27 497.32L85.19 497.31L85.11 497.3L85.03 497.29L84.95 497.28L84.87 497.26L84.79 497.25L84.71 497.23L84.63 497.22L84.55 497.2L84.47 497.18L84.39 497.17L84.31 497.15L84.24 497.13L84.16 497.11L84.08 497.08L84 497.06L83.93 497.04L83.85 497.01L83.78 496.99L83.7 496.96L83.63 496.94L83.55 496.91L83.48 496.88L83.4 496.85L83.33 496.82L83.25 496.79L83.18 496.76L83.11 496.73L83.04 496.7L82.96 496.67L82.89 496.63L82.82 496.6L82.81 496.59L82.8 496.59L82.78 496.58L82.77 496.57L82.76 496.57L82.75 496.56L82.74 496.55L82.73 496.55L82.72 496.54L82.71 496.53L82.69 496.52L82.68 496.52L82.67 496.51L82.66 496.5L82.65 496.49L82.64 496.49L82.63 496.48L82.62 496.47L82.6 496.45L82.56 496.42L82.55 496.41L82.53 496.41L82.52 496.4L82.5 496.38L82.49 496.37L82.48 496.37L82.47 496.36L82.46 496.35L82.45 496.34L82.44 496.34L82.43 496.33L82.41 496.32L82.4 496.31L82.39 496.31L82.38 496.3L82.32 496.27L82.26 496.23L82.2 496.2L82.15 496.16L82.09 496.13L82.03 496.09L81.98 496.05L81.92 496.02L81.86 495.98L81.81 495.94L81.75 495.9L81.7 495.86L81.64 495.82L81.59 495.78L81.54 495.74L81.48 495.7L81.43 495.66L81.38 495.62L81.33 495.58L81.28 495.54L81.23 495.49L81.18 495.45L81.13 495.41L81.08 495.36L81.03 495.32L80.98 495.27L80.93 495.22L80.88 495.18L80.83 495.13L80.79 495.08L80.74 495.04L80.69 494.99L80.65 494.94L80.6 494.89L80.56 494.84L80.51 494.79L80.47 494.74L80.43 494.69L80.38 494.64L80.34 494.58L80.33 494.58L80.33 494.57L80.32 494.56L80.31 494.55L80.31 494.55L80.3 494.54L80.29 494.53L80.28 494.53L80.28 494.52L80.27 494.52L80.26 494.51L80.26 494.51L80.25 494.5L80.24 494.49L80.22 494.48L80.22 494.48L80.19 494.46L80.18 494.45L80.17 494.45L80.15 494.44L80.15 494.43L80.14 494.43L80.13 494.42L80.12 494.41L80.12 494.41L80.11 494.4L80.1 494.4L80.1 494.39L80.09 494.38L80.08 494.38L80.07 494.37L80.07 494.36L80.06 494.35L80.06 494.35L80.05 494.34L80.04 494.33L80.03 494.31L80.02 494.3L80.01 494.28L80 494.27L80 494.25L79.99 494.24L79.98 494.23L79.97 494.21L79.97 494.2L79.96 494.18L79.95 494.17L79.95 494.15L79.94 494.14L79.93 494.12L79.93 494.11L79.92 494.09L79.92 494.08L79.91 494.06L79.91 494.05L79.88 493.99L79.87 493.96L79.87 493.94L79.86 493.93L79.85 493.91L79.85 493.9L79.84 493.88L79.84 493.87L79.83 493.85L79.82 493.84L79.82 493.82L79.81 493.81L79.8 493.79L79.79 493.78L79.79 493.76L79.78 493.75L79.75 493.71L79.73 493.67L79.71 493.64L79.69 493.6L79.67 493.56L79.65 493.52L79.62 493.49L79.6 493.45L79.58 493.41L79.56 493.37L79.54 493.34L79.52 493.3L79.5 493.26L79.48 493.22L79.46 493.18L79.44 493.15L79.42 493.11L79.41 493.07L79.39 493.03L79.37 492.99L79.35 492.95L79.33 492.91L79.32 492.88L79.3 492.84L79.28 492.8L79.26 492.76L79.25 492.72L79.23 492.68L79.22 492.64L79.2 492.6L79.18 492.56L79.17 492.52L79.15 492.48L79.14 492.43L79.12 492.39L79.11 492.35L79.1 492.31L79.08 492.27L79.07 492.23L79.05 492.18L79.04 492.15L79.04 492.12L79.03 492.09L79.02 492.06L79.01 492.03L79 492L78.99 491.97L78.98 491.94L78.98 491.9L78.97 491.87L78.96 491.84L78.95 491.81L78.95 491.78L78.94 491.75L78.93 491.72L78.92 491.69L78.92 491.66L78.91 491.63L78.91 491.59L78.9 491.56L78.89 491.53L78.89 491.5L78.88 491.47L78.88 491.44L78.87 491.41L78.87 491.38L78.86 491.35L78.86 491.31L78.85 491.28L78.85 491.25L78.84 491.22L78.84 491.19L78.83 491.16L78.83 491.13L78.82 491.09L78.82 491.06L78.81 491.03L78.81 491L78.81 490.97L78.8 490.94L78.8 490.91L78.8 490.89L78.79 490.87L78.79 490.84L78.78 490.82L78.78 490.8L78.77 490.78L78.77 490.75L78.76 490.73L78.76 490.71L78.75 490.69L78.75 490.67L78.74 490.64L78.73 490.62L78.73 490.6L78.72 490.58L78.71 490.54L78.7 490.51L78.7 490.49L78.69 490.47L78.68 490.45L78.68 490.43L78.67 490.4L78.67 490.38L78.66 490.36L78.66 490.34L78.65 490.31L78.65 490.29L78.64 490.27L78.64 490.25L78.64 490.23L78.63 490.2L78.63 490.18L78.63 490.16L78.63 490.13L78.62 490.11L78.62 490.09L78.62 490.06L78.62 490.04L78.62 224.68L78.62 224.66L78.62 224.65L78.62 224.63L78.62 224.61L78.63 224.6L78.63 224.58L78.63 224.57L78.63 224.55L78.64 224.54L78.64 224.52L78.64 224.51L78.64 224.49L78.65 224.47L78.65 224.46L78.66 224.44L78.66 224.43L78.66 224.41L78.67 224.4L78.67 224.38L78.68 224.37L78.69 224.31L78.7 224.3L78.7 224.28L78.71 224.27L78.71 224.25L78.71 224.23L78.72 224.22L78.72 224.2L78.73 224.19L78.73 224.17L78.73 224.16L78.73 224.14L78.74 224.13L78.74 224.11L78.74 224.1L78.74 224.08L78.75 224.06L78.75 224.04L78.75 224.02L78.75 224L78.75 223.98L78.75 223.96L78.75 223.94L78.75 223.92L78.75 223.9L78.76 223.89L78.76 223.87L78.76 223.85L78.76 223.83L78.76 223.79L78.76 223.75L78.76 223.71L78.76 223.69L78.76 223.67L78.76 223.65L78.76 223.63L78.76 223.61L78.76 223.59L78.77 223.57L78.77 223.55L78.77 223.53L78.77 223.51L78.77 223.49L78.77 223.47L78.77 223.45L78.78 223.43L78.78 223.41L78.78 223.39L78.78 223.37L78.79 223.35L78.79 223.33L78.79 223.31L78.8 223.29L78.8 223.27L78.8 223.25L78.81 223.23L78.81 223.21L78.82 223.19L78.82 223.17L78.83 223.15L78.83 223.13L78.84 223.11L78.85 223.09L78.85 223.07L78.86 223.05L78.86 223.03L78.87 223.01L78.88 222.99L78.88 222.97L78.89 222.95L78.9 222.93L78.91 222.91L78.91 222.89L78.92 222.87L78.93 222.85L78.94 222.83L78.94 222.81L78.95 222.79L78.97 222.73L78.99 222.69L79 222.67L79 222.65L79.01 222.63L79.02 222.61L79.03 222.59L79.03 222.57L79.04 222.55L79.05 222.53L79.05 222.51L79.06 222.49L79.08 222.44L79.09 222.41L79.1 222.38L79.11 222.35L79.12 222.32L79.13 222.29L79.14 222.26L79.15 222.23L79.16 222.2L79.17 222.17L79.18 222.14L79.19 222.11L79.2 222.08L79.21 222.06L79.22 222.03L79.23 222L79.24 221.97L79.26 221.94L79.27 221.91L79.28 221.88L79.29 221.85L79.3 221.83L79.31 221.8L79.33 221.77L79.34 221.74L79.35 221.71L79.36 221.68L79.38 221.66L79.39 221.63L79.4 221.6L79.42 221.57L79.43 221.54L79.44 221.52L79.46 221.49L79.47 221.46L79.48 221.43L79.5 221.4L79.51 221.38L79.53 221.35L79.54 221.32L79.55 221.3L79.56 221.29L79.57 221.27L79.58 221.25L79.58 221.24L79.59 221.22L79.6 221.2L79.61 221.18L79.63 221.15L79.64 221.12L79.67 221.07L79.68 221.03L79.69 221.02L79.71 220.98L79.72 220.97L79.72 220.95L79.73 220.93L79.74 220.92L79.75 220.9L79.76 220.88L79.77 220.87L79.78 220.85L79.78 220.83L79.79 220.82L79.8 220.8L79.81 220.78L79.82 220.77L79.83 220.75L79.84 220.74L79.85 220.72L79.86 220.7L79.87 220.69L79.88 220.67L79.9 220.65L79.9 220.64L79.9 220.64L79.91 220.63L79.91 220.62L79.91 220.62L79.92 220.61L79.92 220.6L79.92 220.6L79.92 220.59L79.93 220.59L79.93 220.57L79.94 220.56L79.94 220.55L79.94 220.54L79.95 220.52L79.96 220.5L79.96 220.49L79.97 220.47L79.97 220.46L79.98 220.45L79.98 220.44L79.98 220.44L79.99 220.43L79.99 220.42L80 220.42L80 220.41L80 220.41L80.01 220.4L80.02 220.39L80.02 220.38L80.03 220.37L80.04 220.36L80.05 220.34L80.06 220.33L80.07 220.32L80.08 220.31L80.09 220.3L80.1 220.29L80.11 220.29L80.12 220.28L80.13 220.27L80.14 220.26L80.15 220.25L80.16 220.24L80.18 220.23L80.19 220.22L80.2 220.21L80.21 220.21L80.22 220.2L80.23 220.19L80.24 220.18L80.25 220.17L80.27 220.15L80.28 220.15L80.29 220.14L80.31 220.13L80.32 220.12L80.33 220.11L80.34 220.1L80.35 220.09L80.36 220.08L80.37 220.07L80.38 220.06L80.39 220.05L80.4 220.04L80.41 220.03L80.42 220.02L80.44 220L80.46 219.97L80.48 219.95L80.5 219.92L80.52 219.9L80.55 219.87L80.57 219.85L80.59 219.82L80.61 219.8L80.63 219.78L80.66 219.75L80.68 219.73L80.7 219.7L80.72 219.68L80.75 219.66L80.77 219.64L80.79 219.61L80.82 219.59L80.84 219.57L80.86 219.54L80.89 219.52L80.91 219.5L80.93 219.48L80.96 219.45L80.98 219.43L81 219.41L81.03 219.39L81.05 219.37L81.08 219.35L81.1 219.32L81.12 219.3L81.15 219.28L81.17 219.26L81.2 219.24L81.22 219.22L81.25 219.19L81.27 219.17L81.3 219.15L81.33 219.13L81.35 219.11L81.36 219.1L81.37 219.09L81.38 219.08L81.39 219.07L81.4 219.06L81.41 219.05L81.42 219.04L81.43 219.03L81.44 219.02L81.45 219.01L81.46 219L81.46 218.99L81.47 218.98L81.48 218.97L81.49 218.96L81.5 218.95L81.53 218.91L81.55 218.89L81.56 218.88L81.57 218.87L81.57 218.86L81.58 218.85L81.59 218.84L81.6 218.83L81.61 218.82L81.62 218.81L81.63 218.8L81.64 218.79L81.65 218.78L81.66 218.77L81.67 218.76L81.68 218.75L81.69 218.74L81.7 218.73L81.71 218.73L81.72 218.72L83.72 217.31L85.71 215.89L87.7 214.47L89.69 213.04L91.67 211.61L93.66 210.18L95.64 208.74L97.62 207.29L99.6 205.84L101.57 204.39L103.55 202.93L105.52 201.46L107.49 199.99L109.45 198.52L111.42 197.04L113.38 195.56L115.34 194.07L117.3 192.58L119.25 191.08L121.2 189.58L123.15 188.08L125.09 186.57L127.03 185.06L128.97 183.54L130.91 182.02L132.84 180.5L134.77 178.97L136.7 177.44L138.62 175.9L140.54 174.36L142.45 172.82L144.37 171.27L146.27 169.72L148.18 168.17L150.08 166.61L151.98 165.05L153.87 163.49L155.76 161.92L157.65 160.35L159.53 158.78L159.53 68.43L159.53 68.12L159.55 67.83L159.58 67.53L159.62 67.24L159.68 66.95L159.74 66.67L159.82 66.39L159.9 66.11L160 65.84L160.1 65.58L160.22 65.32L160.34 65.06L160.48 64.82L160.62 64.57L160.78 64.34L160.94 64.11L161.11 63.88L161.29 63.67L161.47 63.46L161.67 63.25L161.87 63.06L162.08 62.87L162.3 62.69L162.52 62.52L162.75 62.36L162.99 62.21L163.23 62.06L163.48 61.93L163.73 61.8L163.99 61.69L164.26 61.58L164.53 61.48L164.8 61.4L165.08 61.32L165.37 61.26L165.66 61.21L165.95 61.16L166.24 61.13L166.54 61.12L166.84 61.11L264.07 61.11L303.81 21.72L304.53 21.03L305.28 20.38L306.05 19.76L306.84 19.17L307.65 18.62L308.47 18.11L309.31 17.63L310.16 17.19L311.02 16.78L311.9 16.41L312.79 16.08L313.69 15.78L314.59 15.52L315.51 15.29L316.43 15.1L317.36 14.94L318.29 14.82L319.22 14.73L320.16 14.68L321.1 14.67L322.04 14.69L322.97 14.74ZM347.86 382.43L347.21 382.88L346.56 383.31L345.9 383.73L345.24 384.14L344.57 384.54L343.9 384.92L343.22 385.3L342.54 385.66L341.86 386.01L341.17 386.35L340.47 386.68L339.78 387L339.07 387.3L338.37 387.6L337.66 387.88L336.95 388.15L336.24 388.41L335.52 388.66L334.8 388.89L334.07 389.12L333.35 389.33L332.62 389.53L331.89 389.72L331.16 389.9L330.42 390.07L329.69 390.23L328.95 390.37L328.21 390.5L327.46 390.62L326.72 390.73L325.98 390.83L325.23 390.92L324.48 390.99L323.74 391.06L322.99 391.11L322.24 391.15L321.49 391.18L320.74 391.19L319.99 391.2L319.24 391.19L318.5 391.18L317.75 391.15L317 391.11L316.25 391.06L315.5 390.99L314.76 390.92L314.01 390.83L313.27 390.73L312.53 390.62L311.78 390.5L311.04 390.37L310.31 390.23L309.57 390.07L308.83 389.9L308.1 389.73L307.37 389.54L306.64 389.33L305.92 389.12L305.19 388.9L304.47 388.66L303.76 388.41L303.04 388.15L302.33 387.88L301.62 387.6L300.92 387.31L300.22 387L299.52 386.68L298.83 386.35L298.14 386.01L297.45 385.66L296.77 385.3L296.09 384.92L295.42 384.54L294.75 384.14L294.09 383.73L293.43 383.31L292.78 382.88L292.13 382.43L291.49 381.98L268.46 365.36L108.28 482.73L531.74 482.73L371.54 365.36L348.5 381.98L347.86 382.43ZM255.99 356.37L93.25 238.97L93.25 475.6L255.99 356.37ZM546.74 475.58L546.74 238.97L384.01 356.36L546.74 475.58ZM174.16 279.3L300.05 370.11L300.95 370.74L301.87 371.34L302.8 371.91L303.75 372.44L304.7 372.94L305.67 373.41L306.65 373.84L307.64 374.25L308.64 374.62L309.64 374.96L310.66 375.27L311.68 375.54L312.7 375.78L313.74 375.99L314.77 376.17L315.82 376.31L316.86 376.43L317.91 376.51L318.95 376.56L320 376.57L321.05 376.56L322.1 376.51L323.14 376.43L324.19 376.31L325.23 376.17L326.27 375.99L327.3 375.78L328.32 375.54L329.35 375.26L330.36 374.96L331.36 374.62L332.36 374.25L333.35 373.84L334.33 373.41L335.3 372.94L336.25 372.44L337.19 371.91L338.12 371.34L339.04 370.74L339.94 370.11L465.85 279.29L465.85 75.74L374.82 75.74L374.81 75.74L374.81 75.74L374.8 75.74L374.79 75.74L374.78 75.74L374.77 75.75L374.77 75.75L374.76 75.75L374.74 75.75L374.72 75.76L374.71 75.77L374.7 75.77L374.69 75.77L374.68 75.77L374.68 75.77L374.67 75.77L374.66 75.77L374.65 75.77L374.65 75.77L374.64 75.77L374.63 75.77L374.62 75.77L374.61 75.77L374.6 75.77L374.59 75.77L374.59 75.77L374.58 75.77L374.57 75.76L374.56 75.76L374.55 75.76L374.54 75.76L374.53 75.75L374.52 75.75L374.5 75.75L374.49 75.74L374.48 75.74L174.16 75.74L174.16 279.3ZM156.55 180.18L155.05 181.39L153.55 182.61L152.06 183.82L150.55 185.03L149.05 186.24L147.55 187.44L146.04 188.65L144.53 189.85L143.02 191.05L141.51 192.24L139.99 193.43L138.47 194.63L136.95 195.81L135.43 197L133.91 198.18L132.39 199.37L130.86 200.54L129.33 201.72L127.8 202.89L126.27 204.07L124.74 205.23L123.2 206.4L121.67 207.56L120.13 208.72L118.59 209.88L117.05 211.04L115.51 212.19L113.96 213.34L112.42 214.49L110.87 215.63L109.32 216.77L107.77 217.91L106.22 219.05L104.67 220.18L103.12 221.31L101.56 222.44L100 223.56L98.45 224.69L159.53 268.75L159.53 177.74L158.04 178.96L156.55 180.18ZM541.59 224.65L540.02 223.5L538.46 222.36L536.89 221.21L535.33 220.06L533.77 218.91L532.21 217.75L530.65 216.6L529.1 215.44L527.54 214.28L525.99 213.11L524.44 211.94L522.9 210.77L521.35 209.6L519.81 208.43L518.26 207.25L516.73 206.07L515.19 204.89L513.65 203.71L512.12 202.52L510.59 201.33L509.06 200.14L507.53 198.95L506.01 197.76L504.49 196.56L502.97 195.36L501.45 194.16L499.94 192.96L498.43 191.75L496.92 190.54L495.41 189.33L493.91 188.12L492.4 186.91L490.9 185.69L489.41 184.48L487.91 183.26L486.42 182.04L484.93 180.81L483.44 179.59L481.96 178.36L480.48 177.13L480.48 268.73L541.59 224.65ZM321.51 30.27L321.06 30.31L320.59 30.37L320.11 30.44L319.62 30.52L319.12 30.62L318.61 30.73L318.09 30.85L317.55 30.99L317 31.14L316.45 31.31L315.88 31.49L315.3 31.68L314.7 31.89L314.1 32.11L284.85 61.11L356.95 61.11L327.99 32.16L327.75 31.94L327.51 31.72L327.24 31.53L326.97 31.34L326.69 31.17L326.39 31.02L326.09 30.88L325.77 30.75L325.44 30.64L325.1 30.54L324.74 30.45L324.38 30.38L324.01 30.32L323.62 30.28L323.22 30.25L322.81 30.24L322.39 30.23L321.96 30.25L321.51 30.27Z" id="c2QkIWW048"></path><path d="M335.82 119.23L338.97 119.51L342.07 119.91L345.1 120.41L348.08 121.02L350.99 121.73L353.84 122.54L356.62 123.46L359.34 124.47L361.99 125.58L364.57 126.79L367.07 128.09L369.51 129.48L371.87 130.97L374.16 132.54L376.37 134.19L378.5 135.94L380.55 137.76L382.52 139.66L384.41 141.65L386.22 143.71L387.94 145.85L389.57 148.06L391.12 150.34L392.57 152.69L393.94 155.11L395.21 157.59L396.39 160.14L397.47 162.76L398.46 165.43L399.35 168.16L400.14 170.95L400.83 173.8L401.42 176.7L401.9 179.65L402.28 182.65L402.55 185.7L402.72 188.79L402.77 191.93L402.73 194.74L402.62 197.49L402.42 200.18L402.16 202.81L401.82 205.38L401.41 207.88L400.93 210.33L400.38 212.71L399.77 215.02L399.09 217.28L398.35 219.47L397.55 221.59L396.7 223.65L395.78 225.64L394.81 227.56L393.79 229.41L392.72 231.2L391.6 232.92L390.42 234.57L389.21 236.14L387.95 237.65L386.64 239.09L385.3 240.45L383.91 241.74L382.49 242.95L381.03 244.1L379.54 245.17L378.02 246.16L376.46 247.07L374.88 247.91L373.27 248.68L371.64 249.36L369.98 249.97L368.3 250.5L366.6 250.95L364.88 251.32L363.15 251.6L361.4 251.81L359.63 251.93L357.86 251.97L357.1 251.96L356.35 251.92L355.6 251.86L354.86 251.77L354.12 251.65L353.4 251.51L352.68 251.34L351.96 251.14L351.26 250.92L350.57 250.67L349.89 250.39L349.22 250.09L348.57 249.76L347.93 249.4L347.31 249.01L346.7 248.59L346.11 248.15L345.54 247.68L344.98 247.18L344.45 246.65L343.93 246.09L343.44 245.5L342.97 244.88L342.52 244.24L342.09 243.56L341.69 242.86L341.32 242.12L340.97 241.36L340.65 240.56L340.36 239.74L340.1 238.88L339.86 237.99L339.66 237.08L339.49 236.13L339.35 235.15L339.25 234.14L339.18 233.09L339.14 232.02L339.15 230.91L339.18 229.78L338.18 229.78L337.51 230.88L336.83 231.95L336.14 233L335.44 234.01L334.73 235L334.01 235.96L333.28 236.9L332.54 237.8L331.78 238.68L331.02 239.52L330.24 240.34L329.46 241.13L328.66 241.9L327.85 242.63L327.03 243.34L326.2 244.02L325.35 244.67L324.5 245.29L323.63 245.89L322.75 246.46L321.86 247L320.96 247.51L320.04 247.99L319.11 248.45L318.18 248.88L317.23 249.28L316.26 249.65L315.29 249.99L314.3 250.31L313.3 250.6L312.28 250.86L311.26 251.09L310.22 251.3L309.17 251.48L308.11 251.63L307.03 251.75L305.94 251.85L304.84 251.92L303.72 251.96L302.59 251.97L301.5 251.95L300.41 251.89L299.34 251.78L298.27 251.62L297.22 251.43L296.18 251.19L295.15 250.91L294.14 250.58L293.14 250.22L292.16 249.81L291.2 249.36L290.26 248.88L289.33 248.35L288.43 247.78L287.54 247.17L286.68 246.53L285.85 245.84L285.03 245.12L284.25 244.36L283.48 243.56L282.75 242.72L282.05 241.85L281.37 240.93L280.72 239.99L280.11 239.01L279.53 237.99L278.98 236.93L278.47 235.84L277.99 234.72L277.55 233.56L277.14 232.37L276.78 231.15L276.45 229.89L276.16 228.6L275.92 227.28L275.72 225.92L275.56 224.54L275.44 223.12L275.37 221.67L275.35 220.19L275.39 217.85L275.53 215.52L275.76 213.21L276.08 210.91L276.48 208.64L276.97 206.38L277.54 204.16L278.2 201.95L278.94 199.78L279.76 197.64L280.66 195.54L281.63 193.47L282.69 191.44L283.82 189.46L285.02 187.52L286.29 185.62L287.64 183.77L289.05 181.98L290.54 180.24L292.09 178.55L293.71 176.93L295.39 175.36L297.13 173.86L298.94 172.42L300.81 171.05L302.73 169.76L304.72 168.53L306.76 167.39L308.85 166.32L311 165.33L313.2 164.42L315.45 163.6L317.75 162.86L320.1 162.22L322.5 161.67L324.94 161.21L327.43 160.85L329.96 160.59L332.53 160.43L335.14 160.38L335.95 160.39L336.75 160.4L337.56 160.42L338.35 160.45L339.14 160.49L339.93 160.53L340.71 160.58L341.48 160.64L342.25 160.71L343.01 160.78L343.76 160.87L344.51 160.95L345.26 161.05L345.99 161.15L346.72 161.26L347.44 161.37L348.15 161.5L348.86 161.62L349.56 161.76L350.25 161.9L350.93 162.04L351.6 162.19L352.27 162.35L352.92 162.51L353.57 162.67L354.21 162.84L354.84 163.02L355.46 163.2L356.07 163.39L356.68 163.58L357.27 163.77L357.85 163.97L358.42 164.17L358.99 164.38L359.54 164.58L360.08 164.8L360.61 165.01L361.13 165.23L361.64 165.46L362.13 165.68L353.57 211.36L353.3 212.77L353.05 214.16L352.83 215.5L352.63 216.8L352.46 218.07L352.32 219.29L352.2 220.48L352.1 221.64L352.03 222.75L351.98 223.83L351.96 224.87L351.96 225.87L351.98 226.84L352.03 227.77L352.1 228.66L352.2 229.52L352.32 230.34L352.46 231.12L352.62 231.87L352.81 232.58L353.02 233.26L353.25 233.9L353.5 234.51L353.78 235.08L354.08 235.62L354.4 236.12L354.74 236.59L355.11 237.02L355.5 237.42L355.9 237.79L356.33 238.12L356.78 238.42L357.25 238.69L357.75 238.92L358.26 239.12L358.79 239.28L359.34 239.41L359.92 239.51L360.51 239.58L361.13 239.62L362.1 239.6L363.07 239.52L364.04 239.38L365.02 239.17L366 238.9L366.97 238.57L367.94 238.18L368.91 237.72L369.87 237.2L370.82 236.62L371.76 235.98L372.7 235.28L373.62 234.52L374.52 233.71L375.41 232.83L376.29 231.9L377.15 230.91L377.98 229.86L378.8 228.76L379.59 227.6L380.36 226.38L381.1 225.11L381.82 223.79L382.5 222.41L383.16 220.98L383.79 219.49L384.38 217.96L384.94 216.37L385.46 214.73L385.94 213.04L386.39 211.3L386.79 209.5L387.15 207.66L387.47 205.77L387.75 203.84L387.98 201.85L388.16 199.82L388.29 197.74L388.36 195.61L388.39 193.44L388.35 190.71L388.23 188.03L388.02 185.39L387.74 182.79L387.37 180.23L386.92 177.73L386.4 175.27L385.79 172.85L385.11 170.49L384.35 168.19L383.51 165.93L382.59 163.73L381.6 161.59L380.53 159.5L379.38 157.48L378.16 155.52L376.86 153.62L375.49 151.78L374.04 150.01L372.52 148.3L370.93 146.67L369.26 145.1L367.52 143.61L365.71 142.19L363.83 140.84L361.87 139.57L359.85 138.38L357.75 137.27L355.59 136.23L353.36 135.28L351.05 134.41L348.68 133.63L346.24 132.94L343.74 132.33L341.16 131.81L338.53 131.38L335.82 131.05L333.05 130.81L330.21 130.66L327.31 130.61L324.24 130.67L321.19 130.85L318.18 131.15L315.2 131.57L312.25 132.11L309.34 132.76L306.48 133.53L303.65 134.41L300.87 135.4L298.14 136.5L295.46 137.71L292.83 139.02L290.26 140.45L287.74 141.98L285.29 143.61L282.91 145.35L280.58 147.18L278.33 149.12L276.15 151.15L274.05 153.29L272.02 155.52L270.07 157.84L268.2 160.26L266.42 162.77L264.73 165.37L263.12 168.06L261.61 170.83L260.2 173.7L258.88 176.65L257.66 179.68L256.55 182.8L255.54 186L254.64 189.28L253.86 192.64L253.18 196.08L252.63 199.59L252.19 203.18L251.87 206.84L251.68 210.58L251.62 214.39L251.67 217.52L251.82 220.58L252.07 223.59L252.43 226.53L252.87 229.41L253.42 232.23L254.05 234.97L254.78 237.65L255.59 240.27L256.5 242.81L257.49 245.28L258.57 247.69L259.73 250.02L260.97 252.28L262.29 254.46L263.69 256.57L265.17 258.61L266.72 260.57L268.34 262.45L270.04 264.25L271.81 265.98L273.64 267.62L275.54 269.19L277.51 270.67L279.54 272.07L281.63 273.39L283.78 274.62L285.99 275.76L288.26 276.82L290.58 277.8L292.95 278.68L295.38 279.48L297.86 280.18L300.38 280.79L302.96 281.32L305.57 281.75L308.23 282.08L310.94 282.32L313.68 282.47L316.46 282.52L317.54 282.51L318.61 282.49L319.68 282.47L320.74 282.43L321.8 282.37L322.86 282.31L323.91 282.24L324.95 282.15L325.99 282.06L327.03 281.95L328.06 281.83L329.08 281.7L330.1 281.56L331.11 281.41L332.11 281.25L333.11 281.08L334.1 280.89L335.08 280.7L336.06 280.49L337.03 280.28L337.99 280.05L338.94 279.81L339.89 279.56L340.83 279.3L341.76 279.03L342.68 278.75L343.59 278.45L344.49 278.15L345.39 277.84L346.27 277.51L347.15 277.17L348.01 276.83L348.87 276.47L349.72 276.1L350.55 275.73L351.38 275.34L352.19 274.94L353 274.53L353.79 274.11L354.57 273.68L358.6 284.53L357.56 285.07L356.52 285.59L355.47 286.1L354.43 286.59L353.38 287.06L352.33 287.52L351.28 287.96L350.23 288.39L349.17 288.8L348.11 289.19L347.05 289.57L345.98 289.93L344.91 290.28L343.83 290.62L342.75 290.94L341.67 291.24L340.58 291.53L339.49 291.81L338.39 292.07L337.28 292.32L336.17 292.55L335.06 292.77L333.94 292.98L332.81 293.17L331.67 293.35L330.53 293.52L329.38 293.68L328.22 293.82L327.06 293.95L325.89 294.07L324.71 294.18L323.52 294.27L322.32 294.35L321.12 294.42L319.9 294.48L318.68 294.53L317.45 294.57L316.2 294.6L314.95 294.61L313.69 294.62L310.6 294.56L307.53 294.39L304.49 294.11L301.49 293.72L298.52 293.22L295.59 292.61L292.7 291.9L289.85 291.08L287.04 290.16L284.28 289.13L281.58 288L278.92 286.77L276.33 285.44L273.79 284.01L271.31 282.48L268.9 280.86L266.55 279.14L264.28 277.33L262.07 275.42L259.94 273.42L257.89 271.34L255.92 269.16L254.03 266.89L252.23 264.54L250.51 262.09L248.89 259.57L247.36 256.96L245.93 254.27L244.59 251.49L243.36 248.64L242.23 245.7L241.21 242.69L240.3 239.6L239.51 236.43L238.82 233.19L238.26 229.87L237.82 226.49L237.5 223.03L237.3 219.5L237.24 215.9L237.3 212.01L237.5 208.16L237.84 204.34L238.3 200.55L238.9 196.81L239.62 193.11L240.46 189.46L241.44 185.86L242.53 182.31L243.75 178.83L245.09 175.4L246.54 172.04L248.11 168.75L249.8 165.54L251.61 162.4L253.52 159.33L255.55 156.36L257.68 153.46L259.93 150.66L262.28 147.96L264.73 145.35L267.29 142.84L269.95 140.43L272.72 138.14L275.58 135.95L278.54 133.89L281.59 131.94L284.74 130.11L287.98 128.41L291.31 126.83L294.74 125.39L298.25 124.09L301.85 122.93L305.53 121.91L309.3 121.03L313.15 120.31L317.08 119.74L321.09 119.33L325.18 119.09L329.34 119L332.61 119.06L335.82 119.23ZM328.55 173.94L326.81 174.16L325.08 174.47L323.38 174.86L321.71 175.34L320.06 175.89L318.45 176.52L316.87 177.22L315.32 178L313.8 178.85L312.33 179.77L310.89 180.76L309.49 181.81L308.13 182.92L306.81 184.1L305.54 185.33L304.32 186.62L303.14 187.97L302.02 189.37L300.94 190.81L299.92 192.31L298.95 193.85L298.04 195.44L297.18 197.07L296.38 198.74L295.65 200.45L294.98 202.19L294.37 203.97L293.82 205.78L293.35 207.62L292.94 209.49L292.6 211.38L292.34 213.3L292.15 215.24L292.03 217.2L291.99 219.17L292 220.07L292.04 220.95L292.1 221.81L292.19 222.66L292.29 223.5L292.43 224.32L292.59 225.12L292.77 225.9L292.98 226.67L293.21 227.41L293.46 228.14L293.74 228.85L294.05 229.54L294.37 230.2L294.73 230.85L295.1 231.47L295.51 232.07L295.93 232.65L296.38 233.2L296.86 233.73L297.36 234.23L297.88 234.71L298.43 235.16L299 235.58L299.59 235.98L300.22 236.34L300.86 236.68L301.53 236.99L302.22 237.27L302.94 237.52L303.69 237.74L304.45 237.92L305.24 238.08L306.06 238.2L306.9 238.28L307.76 238.34L308.65 238.35L309.45 238.33L310.24 238.25L311.04 238.13L311.83 237.95L312.63 237.73L313.44 237.45L314.24 237.12L315.05 236.75L315.86 236.32L316.67 235.85L317.49 235.32L318.3 234.74L319.12 234.12L319.94 233.44L320.76 232.71L321.59 231.94L322.42 231.11L323.25 230.23L324.08 229.3L324.91 228.33L325.75 227.3L326.59 226.22L327.43 225.09L328.27 223.92L329.12 222.69L329.96 221.41L330.81 220.08L331.66 218.7L332.52 217.27L333.37 215.8L334.23 214.27L335.09 212.69L335.96 211.06L336.82 209.38L337.69 207.65L338.56 205.87L339.43 204.04L344.73 175.52L344.52 175.46L344.31 175.4L344.08 175.33L343.85 175.27L343.61 175.21L343.36 175.14L343.11 175.07L342.85 175.01L342.58 174.94L342.3 174.88L342.02 174.81L341.72 174.75L341.43 174.69L341.12 174.62L340.8 174.56L340.48 174.5L340.16 174.44L339.82 174.38L339.48 174.33L339.13 174.27L338.77 174.22L338.41 174.17L338.03 174.12L337.66 174.08L337.27 174.03L336.88 173.99L336.48 173.95L336.07 173.92L335.66 173.89L335.24 173.86L334.82 173.83L334.38 173.81L333.94 173.79L333.5 173.78L333.04 173.77L332.58 173.76L332.12 173.76L330.32 173.8L328.55 173.94Z" id="dAcFz4Gu2"></path></defs><g><g><g><use xlink:href="#c2QkIWW048" opacity="1" fill="#ffffff" fill-opacity="1"></use><g><use xlink:href="#c2QkIWW048" opacity="1" fill-opacity="0" stroke="#000000" stroke-width="1" stroke-opacity="0"></use></g></g><g><use xlink:href="#dAcFz4Gu2" opacity="1" fill="#ffffff" fill-opacity="1"></use><g><use xlink:href="#dAcFz4Gu2" opacity="1" fill-opacity="0" stroke="#000000" stroke-width="1" stroke-opacity="0"></use></g></g></g></g></svg>