<?xml version="1.0" encoding="UTF-8" standalone="no"?>
<!DOCTYPE svg PUBLIC "-//W3C//DTD SVG 1.1//EN" "http://www.w3.org/Graphics/SVG/1.1/DTD/svg11.dtd">
<svg version="1.1" xmlns="http://www.w3.org/2000/svg" xmlns:xlink="http://www.w3.org/1999/xlink" preserveAspectRatio="xMidYMid meet" viewBox="0 0 640 640" width="640" height="640"><defs><path d="M143.17 211.29C143.17 211.29 143.17 211.29 143.17 211.29C143.17 462.57 143.17 602.17 143.17 630.09C143.17 630.09 143.17 630.09 143.17 630.09C61.94 630.09 16.82 630.09 7.79 630.09C7.79 630.09 7.79 630.09 7.79 630.09C7.79 378.81 7.79 239.21 7.79 211.29C7.79 211.29 7.79 211.29 7.79 211.29C89.02 211.29 134.14 211.29 143.17 211.29Z" id="h3Ck9c1jFu"></path><path d="M474.64 201.57C457.41 201.57 441.75 203.75 427.66 208.12C413.58 212.49 401.68 218.62 391.97 226.51C382.26 234.39 374.53 241.72 368.8 248.48C363.34 254.9 358 262.38 352.79 270.84C352.79 266.86 352.79 247.01 352.79 211.28L217.82 211.28C218.07 223.46 218.21 230.22 218.24 231.57C218.51 245.1 218.65 286.79 218.65 356.66C218.65 426.54 218.38 517.68 217.83 630.09C226.83 630.09 271.82 630.09 352.79 630.09C352.79 489.87 352.79 411.96 352.79 396.38C352.79 382.02 354.29 370.61 357.3 362.15C363.05 347.77 371.73 335.74 383.36 326.02C394.98 316.29 409.41 311.44 426.64 311.44C450.15 311.44 467.46 319.82 478.54 336.58C489.61 353.34 495.15 376.52 495.15 406.1C495.15 421.03 495.15 495.69 495.15 630.08L630.11 630.08C630.11 486.06 630.11 406.05 630.11 390.05C630.1 328.34 615.89 281.51 587.45 249.54C559.01 217.56 521.4 201.57 474.64 201.57Z" id="a1YZpZ50w"></path><path d="M21.13 30.19C7.04 43.86 0 61.11 0 81.96C0 102.53 6.84 119.72 20.51 133.52C34.18 147.32 52.23 154.23 74.66 154.23C74.74 154.23 75.4 154.23 75.48 154.23C98.45 154.23 116.99 147.33 131.07 133.52C145.15 119.72 152.06 102.53 151.78 81.96C151.51 61.11 144.53 43.86 130.86 30.19C117.19 16.53 99 9.7 76.3 9.7C53.6 9.7 35.21 16.53 21.13 30.19Z" id="bQj9mA"></path></defs><g><g><path></path><g><use xlink:href="#h3Ck9c1jFu" opacity="1" fill="#ffffff" fill-opacity="1"></use><g><use xlink:href="#h3Ck9c1jFu" opacity="1" fill-opacity="0" stroke="#000000" stroke-width="1" stroke-opacity="0"></use></g></g><g><use xlink:href="#a1YZpZ50w" opacity="1" fill="#ffffff" fill-opacity="1"></use><g><use xlink:href="#a1YZpZ50w" opacity="1" fill-opacity="0" stroke="#000000" stroke-width="1" stroke-opacity="0"></use></g></g><g><use xlink:href="#bQj9mA" opacity="1" fill="#ffffff" fill-opacity="1"></use><g><use xlink:href="#bQj9mA" opacity="1" fill-opacity="0" stroke="#000000" stroke-width="1" stroke-opacity="0"></use></g></g></g></g></svg>