<?xml version="1.0" encoding="UTF-8" standalone="no"?>
<!DOCTYPE svg PUBLIC "-//W3C//DTD SVG 1.1//EN" "http://www.w3.org/Graphics/SVG/1.1/DTD/svg11.dtd">
<svg version="1.1" xmlns="http://www.w3.org/2000/svg" xmlns:xlink="http://www.w3.org/1999/xlink" preserveAspectRatio="xMidYMid meet" viewBox="0 0 640 640" width="640" height="640"><defs><path d="M495.59 14.65L495.89 14.68L496.18 14.72L496.47 14.78L496.75 14.84L497.03 14.92L497.3 15L497.57 15.1L497.84 15.2L498.1 15.32L498.35 15.44L498.6 15.58L498.85 15.72L499.08 15.88L499.31 16.04L499.54 16.21L499.75 16.39L499.96 16.57L500.16 16.77L500.36 16.97L500.55 17.18L500.73 17.4L500.9 17.62L501.06 17.85L501.21 18.09L501.36 18.33L501.49 18.58L501.62 18.83L501.73 19.09L501.84 19.36L501.93 19.63L502.02 19.9L502.09 20.18L502.16 20.47L502.21 20.76L502.25 21.05L502.28 21.34L502.3 21.64L502.31 21.94L502.31 490.06L502.3 490.36L502.28 490.66L502.25 490.95L502.21 491.24L502.16 491.53L502.09 491.82L502.02 492.1L501.93 492.37L501.84 492.64L501.73 492.91L501.62 493.17L501.49 493.42L501.36 493.67L501.21 493.91L501.06 494.15L500.9 494.38L500.73 494.6L500.55 494.82L500.36 495.03L500.16 495.23L499.96 495.43L499.75 495.61L499.54 495.79L499.31 495.96L499.08 496.12L498.85 496.28L498.6 496.42L498.35 496.56L498.1 496.68L497.84 496.8L497.57 496.9L497.3 497L497.03 497.08L496.75 497.16L496.47 497.22L496.18 497.28L495.89 497.32L495.59 497.35L495.29 497.37L494.99 497.37L145.01 497.37L144.71 497.37L144.41 497.35L144.11 497.32L143.82 497.28L143.53 497.22L143.25 497.16L142.97 497.08L142.7 497L142.43 496.9L142.16 496.8L141.9 496.68L141.65 496.56L141.4 496.42L141.15 496.28L140.92 496.12L140.69 495.96L140.46 495.79L140.25 495.61L140.04 495.43L139.84 495.23L139.64 495.03L139.45 494.82L139.27 494.6L139.1 494.38L138.94 494.15L138.79 493.91L138.64 493.67L138.51 493.42L138.38 493.17L138.27 492.91L138.16 492.64L138.07 492.37L137.98 492.1L137.91 491.82L137.84 491.53L137.79 491.24L137.75 490.95L137.72 490.66L137.7 490.36L137.69 490.06L137.69 21.94L137.7 21.74L137.71 21.54L137.73 21.34L137.77 21.14L137.81 20.94L137.86 20.75L137.92 20.55L137.99 20.36L138.06 20.16L138.15 19.97L138.25 19.78L138.35 19.59L138.47 19.4L138.59 19.21L138.72 19.02L138.86 18.83L139.01 18.65L139.17 18.46L139.34 18.28L139.52 18.09L139.71 17.91L139.91 17.73L140.11 17.55L140.33 17.37L140.55 17.19L140.78 17.01L141.03 16.84L141.28 16.66L141.54 16.49L141.81 16.31L142.09 16.14L142.37 15.97L142.67 15.8L142.98 15.63L143.29 15.46L143.62 15.29L143.95 15.12L144.29 14.96L144.65 14.79L145.01 14.63L494.99 14.63L495.29 14.63L495.59 14.65ZM152.32 482.74L487.68 482.74L487.68 29.26L152.32 29.26L152.32 482.74Z" id="a2lH9WEZ8C"></path><path d="M443.17 437.09C447.21 437.09 450.48 433.82 450.48 429.78C450.48 425.74 447.21 422.46 443.17 422.46C436.24 422.46 415.67 422.46 389.14 422.46C356.7 422.46 315.36 422.46 279.1 422.46C239.56 422.46 206.07 422.46 196.83 422.46C192.79 422.46 189.52 425.74 189.52 429.78C189.52 433.82 192.79 437.09 196.83 437.09C246.1 437.09 418.53 437.09 443.17 437.09Z" id="dkKPP63Q3"></path><path d="M394.79 376.61C398.83 376.61 402.1 373.34 402.1 369.29C402.1 365.25 398.83 361.98 394.79 361.98C374.99 361.98 216.63 361.98 196.83 361.98C192.79 361.98 189.52 365.25 189.52 369.29C189.52 373.34 192.79 376.61 196.83 376.61C236.42 376.61 374.99 376.61 394.79 376.61Z" id="e5RmQ8nFim"></path><path d="M422.55 316.12C426.59 316.12 429.86 312.85 429.86 308.81C429.86 304.76 426.59 301.49 422.55 301.49C399.98 301.49 219.4 301.49 196.83 301.49C192.79 301.49 189.52 304.76 189.52 308.81C189.52 312.85 192.79 316.12 196.83 316.12C241.98 316.12 399.98 316.12 422.55 316.12Z" id="c1YwESrGdY"></path><path d="M325.57 75.22L329.42 75.62L333.23 76.16L337 76.85L340.7 77.69L344.36 78.67L347.95 79.79L351.48 81.05L354.95 82.44L358.35 83.96L361.68 85.6L364.94 87.37L368.11 89.26L371.21 91.27L374.23 93.39L377.15 95.63L379.99 97.97L382.74 100.42L385.39 102.97L387.94 105.61L390.39 108.36L392.73 111.2L394.97 114.12L397.09 117.14L399.1 120.23L400.99 123.41L402.76 126.66L404.41 129.99L405.93 133.39L407.32 136.86L408.58 140.39L409.7 143.99L410.68 147.64L411.52 151.35L412.22 155.11L412.76 158.92L413.16 162.77L413.4 166.67L413.48 170.61L413.47 172.18L413.43 173.73L413.37 175.29L413.28 176.83L413.17 178.37L413.03 179.9L412.87 181.42L412.69 182.94L412.48 184.45L412.24 185.95L411.99 187.44L411.71 188.93L411.41 190.4L411.08 191.87L410.74 193.33L410.37 194.79L409.97 196.23L409.56 197.66L409.12 199.09L408.67 200.5L408.19 201.91L407.69 203.3L407.17 204.69L406.63 206.07L406.07 207.43L405.48 208.79L404.88 210.13L404.26 211.46L403.62 212.79L402.95 214.1L402.27 215.4L401.57 216.68L400.85 217.96L400.12 219.22L399.36 220.48L398.59 221.72L397.79 222.94L396.98 224.16L396.16 225.36L395.31 226.55L395.29 226.58L395.28 226.61L395.26 226.64L395.24 226.67L395.23 226.69L395.21 226.72L395.19 226.75L395.17 226.78L395.15 226.81L395.13 226.84L395.12 226.86L395.1 226.89L395.08 226.92L395.06 226.94L395.04 226.97L395.02 227L395 227.03L394.97 227.05L394.95 227.08L394.93 227.11L394.91 227.13L394.89 227.16L394.87 227.18L394.85 227.21L394.83 227.24L394.81 227.26L394.78 227.29L394.76 227.32L394.74 227.34L394.7 227.39L394.67 227.42L394.63 227.47L394.61 227.5L394.59 227.53L394.56 227.55L394.54 227.58L394.52 227.61L394.5 227.63L393.17 229.38L391.8 231.09L390.4 232.77L388.96 234.42L387.48 236.03L385.96 237.62L384.42 239.16L382.83 240.67L381.21 242.15L379.56 243.59L377.88 244.99L376.17 246.35L374.42 247.68L372.64 248.96L370.84 250.21L369 251.41L367.13 252.58L365.24 253.7L363.32 254.78L361.37 255.81L359.4 256.81L357.4 257.75L355.38 258.65L353.33 259.51L351.26 260.32L349.16 261.08L347.04 261.8L344.9 262.46L342.74 263.08L340.56 263.64L338.36 264.16L336.14 264.62L333.9 265.03L331.65 265.39L329.37 265.7L327.08 265.95L324.78 266.15L322.46 266.29L320.12 266.38L317.77 266.41L317.73 266.41L315.81 266.39L313.91 266.33L312.01 266.24L310.11 266.11L308.22 265.94L306.34 265.74L304.47 265.5L302.61 265.23L300.76 264.92L298.91 264.57L297.08 264.19L295.26 263.77L293.44 263.32L291.64 262.83L289.85 262.31L288.07 261.75L286.31 261.16L284.55 260.53L282.81 259.87L281.09 259.17L279.37 258.45L277.68 257.68L275.99 256.89L274.33 256.06L272.67 255.2L271.04 254.3L269.42 253.37L267.81 252.41L266.23 251.42L264.66 250.39L263.11 249.33L261.58 248.24L260.07 247.12L258.58 245.97L257.1 244.78L255.65 243.57L254.22 242.32L252.81 241.04L251.42 239.73L250.05 238.39L249.79 238.13L249.53 237.86L249.27 237.6L249.01 237.33L248.75 237.06L248.5 236.79L248.24 236.52L247.99 236.25L247.74 235.98L247.49 235.71L247.24 235.43L246.99 235.16L246.75 234.88L246.5 234.61L246.26 234.33L246.02 234.05L245.78 233.77L245.54 233.49L245.3 233.21L245.06 232.93L244.83 232.65L244.59 232.37L244.36 232.08L244.13 231.8L243.89 231.51L243.66 231.23L243.43 230.94L243.21 230.65L242.98 230.36L242.75 230.08L242.53 229.79L242.3 229.5L242.08 229.21L241.86 228.91L241.63 228.62L241.41 228.33L241.19 228.04L240.98 227.74L240.76 227.45L240.54 227.16L240.53 227.14L240.52 227.13L240.51 227.11L240.5 227.1L240.49 227.09L240.48 227.07L240.47 227.06L240.46 227.04L240.45 227.03L240.44 227.02L240.43 227L240.41 226.98L240.38 226.95L240.35 226.91L240.34 226.9L240.32 226.87L240.31 226.86L240.3 226.84L240.29 226.83L240.28 226.82L240.27 226.8L240.26 226.79L240.25 226.78L240.24 226.76L240.23 226.75L240.22 226.74L240.21 226.72L240.2 226.71L240.19 226.69L240.18 226.68L240.17 226.67L240.16 226.65L240.15 226.64L240.14 226.62L240.13 226.61L239.26 225.39L238.41 224.16L237.59 222.91L236.78 221.66L235.99 220.39L235.22 219.12L234.47 217.83L233.74 216.53L233.04 215.22L232.35 213.91L231.69 212.58L231.04 211.24L230.42 209.89L229.82 208.54L229.24 207.17L228.68 205.8L228.14 204.42L227.63 203.03L227.13 201.63L226.66 200.22L226.21 198.81L225.79 197.38L225.38 195.95L225 194.52L224.64 193.07L224.3 191.62L223.98 190.16L223.69 188.7L223.42 187.23L223.17 185.75L222.95 184.27L222.74 182.78L222.57 181.29L222.41 179.79L222.28 178.28L222.17 176.77L222.09 175.26L222.03 173.74L221.99 172.22L221.98 170.69L222.06 166.75L222.29 162.85L222.69 158.99L223.23 155.18L223.92 151.42L224.76 147.71L225.74 144.06L226.86 140.46L228.11 136.93L229.5 133.46L231.02 130.06L232.67 126.73L234.44 123.47L236.33 120.29L238.33 117.19L240.46 114.18L242.69 111.25L245.03 108.41L247.48 105.66L250.03 103.01L252.68 100.46L255.42 98.01L258.26 95.66L261.19 93.43L264.2 91.3L267.3 89.29L270.47 87.4L273.73 85.63L277.06 83.98L280.46 82.46L283.93 81.07L287.46 79.81L291.05 78.69L294.71 77.7L298.42 76.86L302.18 76.17L305.99 75.62L309.84 75.23L313.75 74.99L317.69 74.91L317.73 74.91L321.67 74.99L325.57 75.22ZM314.3 194.33L312.49 194.43L310.69 194.56L308.9 194.74L307.12 194.95L305.36 195.2L303.6 195.49L301.85 195.82L300.12 196.18L298.4 196.58L296.7 197.02L295 197.49L293.32 198L291.66 198.54L290.01 199.12L288.37 199.74L286.75 200.39L285.15 201.08L283.56 201.8L281.99 202.55L280.44 203.34L278.9 204.17L277.39 205.02L275.89 205.91L274.41 206.84L272.95 207.79L271.5 208.78L270.08 209.8L268.68 210.86L267.3 211.94L265.95 213.06L264.61 214.21L263.3 215.39L262 216.6L260.74 217.84L259.49 219.11L258.27 220.41L257.08 221.74L255.9 223.1L256.01 223.23L256.12 223.35L256.23 223.48L256.34 223.61L256.44 223.73L256.55 223.86L256.66 223.98L256.77 224.11L256.88 224.24L256.99 224.36L257.1 224.49L257.21 224.61L257.32 224.74L257.43 224.86L257.54 224.99L257.65 225.11L257.76 225.24L257.87 225.36L257.98 225.49L258.09 225.61L258.2 225.73L258.32 225.86L258.43 225.98L258.54 226.1L258.65 226.23L258.77 226.35L258.88 226.47L259 226.6L259.11 226.72L259.22 226.84L259.34 226.96L259.45 227.08L259.57 227.2L259.69 227.32L259.8 227.44L259.92 227.57L260.04 227.69L260.16 227.8L260.27 227.92L260.39 228.04L261.55 229.18L262.73 230.29L263.92 231.37L265.14 232.43L266.37 233.46L267.61 234.46L268.88 235.44L270.16 236.39L271.46 237.31L272.77 238.21L274.1 239.08L275.44 239.92L276.8 240.73L278.17 241.52L279.56 242.28L280.96 243.01L282.37 243.71L283.8 244.39L285.23 245.03L286.68 245.65L288.15 246.24L289.62 246.8L291.11 247.33L292.6 247.83L294.11 248.3L295.63 248.75L297.15 249.16L298.69 249.54L300.24 249.9L301.79 250.22L303.35 250.52L304.92 250.78L306.5 251.01L308.08 251.21L309.68 251.39L311.27 251.53L312.88 251.64L314.49 251.72L316.11 251.76L317.73 251.78L317.76 251.78L319.61 251.76L321.45 251.69L323.28 251.59L325.09 251.45L326.9 251.26L328.69 251.04L330.47 250.77L332.24 250.47L334 250.13L335.74 249.76L337.47 249.34L339.18 248.89L340.88 248.4L342.56 247.88L344.23 247.32L345.88 246.73L347.51 246.1L349.13 245.43L350.73 244.74L352.31 244.01L353.87 243.25L355.41 242.45L356.94 241.62L358.44 240.77L359.93 239.88L361.39 238.96L362.83 238.01L364.25 237.03L365.65 236.02L367.03 234.98L368.39 233.92L369.72 232.82L371.02 231.7L372.31 230.56L373.57 229.38L374.8 228.18L376.01 226.96L377.19 225.71L378.35 224.43L379.48 223.13L378.32 221.79L377.14 220.47L375.93 219.18L374.7 217.92L373.44 216.69L372.15 215.49L370.85 214.31L369.51 213.17L368.16 212.06L366.78 210.98L365.38 209.92L363.97 208.9L362.52 207.91L361.06 206.96L359.58 206.03L358.09 205.14L356.57 204.28L355.03 203.45L353.48 202.66L351.91 201.9L350.33 201.17L348.73 200.48L347.11 199.82L345.48 199.2L343.84 198.61L342.19 198.06L340.52 197.54L338.84 197.06L337.14 196.62L335.44 196.22L333.73 195.85L332 195.51L330.27 195.22L328.53 194.97L326.78 194.75L325.03 194.57L323.26 194.43L321.49 194.33L319.72 194.27L317.94 194.25L316.11 194.27L314.3 194.33ZM314.35 89.61L311.05 89.81L307.78 90.14L304.55 90.61L301.37 91.19L298.22 91.91L295.13 92.74L292.08 93.69L289.09 94.76L286.15 95.94L283.27 97.22L280.45 98.62L277.69 100.12L275 101.73L272.38 103.43L269.82 105.23L267.34 107.13L264.94 109.11L262.61 111.19L260.37 113.35L258.21 115.59L256.14 117.92L254.15 120.33L252.26 122.81L250.46 125.36L248.76 127.99L247.16 130.68L245.66 133.44L244.27 136.26L242.98 139.15L241.8 142.08L240.74 145.08L239.79 148.13L238.96 151.22L238.25 154.36L237.67 157.55L237.21 160.78L236.87 164.05L236.67 167.35L236.61 170.69L236.61 171.76L236.64 172.83L236.67 173.89L236.72 174.95L236.78 176.01L236.86 177.07L236.95 178.12L237.05 179.17L237.17 180.22L237.3 181.26L237.45 182.3L237.6 183.34L237.77 184.37L237.96 185.4L238.16 186.43L238.37 187.46L238.59 188.48L238.83 189.49L239.08 190.5L239.34 191.51L239.61 192.52L239.9 193.52L240.2 194.51L240.52 195.5L240.84 196.49L241.18 197.47L241.53 198.45L241.9 199.42L242.27 200.39L242.66 201.35L243.06 202.31L243.48 203.26L243.9 204.21L244.34 205.15L244.79 206.09L245.25 207.02L245.72 207.94L246.21 208.86L246.71 209.78L247.22 210.69L248.13 209.7L249.06 208.72L250 207.76L250.95 206.81L251.92 205.88L252.89 204.97L253.87 204.07L254.87 203.19L255.88 202.32L256.9 201.46L257.92 200.63L258.96 199.8L260.01 199L261.07 198.21L262.14 197.43L263.22 196.67L264.31 195.93L265.4 195.2L266.51 194.49L267.63 193.79L268.76 193.11L269.89 192.45L271.03 191.8L272.19 191.17L273.35 190.55L274.52 189.95L275.69 189.37L276.88 188.8L278.07 188.25L279.28 187.72L280.49 187.2L281.7 186.7L282.93 186.22L284.16 185.75L285.4 185.3L286.64 184.87L287.89 184.45L289.15 184.05L290.42 183.67L291.69 183.31L291.21 182.8L290.73 182.3L290.27 181.78L289.81 181.25L289.37 180.71L288.93 180.17L288.51 179.62L288.09 179.06L287.69 178.49L287.29 177.91L286.91 177.33L286.54 176.74L286.18 176.14L285.83 175.53L285.49 174.92L285.16 174.3L284.84 173.67L284.54 173.03L284.25 172.39L283.97 171.75L283.7 171.09L283.45 170.43L283.2 169.77L282.97 169.09L282.76 168.42L282.55 167.73L282.36 167.04L282.18 166.35L282.02 165.65L281.87 164.94L281.73 164.23L281.6 163.52L281.5 162.8L281.4 162.08L281.32 161.35L281.25 160.62L281.2 159.88L281.16 159.14L281.14 158.4L281.13 157.65L281.16 156.14L281.25 154.65L281.4 153.18L281.61 151.72L281.88 150.28L282.2 148.87L282.57 147.47L283 146.1L283.48 144.74L284.01 143.42L284.59 142.12L285.22 140.85L285.9 139.6L286.62 138.39L287.39 137.2L288.2 136.05L289.06 134.93L289.95 133.85L290.89 132.8L291.86 131.78L292.88 130.81L293.93 129.87L295.01 128.98L296.13 128.12L297.28 127.31L298.47 126.54L299.68 125.82L300.92 125.14L302.2 124.51L303.5 123.93L304.82 123.4L306.17 122.92L307.55 122.49L308.94 122.12L310.36 121.8L311.8 121.53L313.26 121.32L314.73 121.17L316.22 121.08L317.73 121.05L319.23 121.08L320.73 121.17L322.2 121.32L323.66 121.53L325.09 121.8L326.51 122.12L327.91 122.49L329.28 122.92L330.63 123.4L331.96 123.93L333.26 124.51L334.53 125.14L335.78 125.82L336.99 126.54L338.18 127.31L339.33 128.12L340.45 128.98L341.53 129.87L342.58 130.81L343.59 131.78L344.57 132.8L345.5 133.85L346.4 134.93L347.25 136.05L348.07 137.2L348.83 138.39L349.56 139.6L350.23 140.85L350.86 142.12L351.44 143.42L351.98 144.74L352.46 146.1L352.88 147.47L353.26 148.87L353.58 150.28L353.85 151.72L354.05 153.18L354.2 154.65L354.29 156.14L354.32 157.65L354.32 158.4L354.29 159.15L354.26 159.89L354.2 160.63L354.14 161.36L354.06 162.09L353.96 162.82L353.85 163.54L353.73 164.26L353.59 164.97L353.44 165.68L353.27 166.38L353.09 167.08L352.9 167.77L352.69 168.45L352.47 169.14L352.24 169.81L352 170.48L351.74 171.14L351.47 171.8L351.19 172.45L350.9 173.09L350.59 173.73L350.27 174.36L349.94 174.98L349.6 175.59L349.25 176.2L348.89 176.8L348.51 177.4L348.13 177.98L347.73 178.56L347.32 179.13L346.91 179.69L346.48 180.24L346.04 180.79L345.59 181.33L345.13 181.85L344.67 182.37L344.19 182.88L343.7 183.38L344.97 183.75L346.24 184.14L347.5 184.55L348.75 184.97L350 185.4L351.24 185.86L352.48 186.33L353.7 186.82L354.92 187.32L356.14 187.84L357.34 188.38L358.54 188.93L359.73 189.5L360.91 190.09L362.08 190.69L363.25 191.31L364.4 191.94L365.55 192.59L366.69 193.25L367.82 193.93L368.93 194.63L370.04 195.34L371.14 196.07L372.23 196.81L373.31 197.57L374.38 198.34L375.44 199.13L376.49 199.93L377.53 200.75L378.55 201.58L379.57 202.43L380.57 203.29L381.57 204.17L382.55 205.06L383.52 205.97L384.47 206.89L385.42 207.82L386.35 208.77L387.27 209.74L388.17 210.72L388.68 209.82L389.17 208.93L389.65 208.02L390.12 207.11L390.58 206.19L391.02 205.27L391.46 204.33L391.88 203.4L392.3 202.45L392.7 201.5L393.09 200.55L393.46 199.59L393.83 198.62L394.18 197.65L394.53 196.67L394.86 195.69L395.17 194.7L395.48 193.7L395.77 192.7L396.05 191.69L396.32 190.68L396.57 189.67L396.81 188.65L397.04 187.62L397.26 186.59L397.46 185.56L397.65 184.52L397.82 183.47L397.99 182.42L398.14 181.37L398.27 180.31L398.39 179.25L398.5 178.18L398.59 177.11L398.67 176.04L398.74 174.96L398.79 173.88L398.82 172.8L398.84 171.71L398.85 170.61L398.78 167.28L398.58 163.97L398.24 160.71L397.78 157.48L397.19 154.29L396.48 151.15L395.65 148.06L394.7 145.01L393.63 142.02L392.45 139.08L391.17 136.2L389.77 133.38L388.27 130.63L386.67 127.93L384.96 125.31L383.16 122.76L381.27 120.28L379.28 117.88L377.21 115.55L375.05 113.31L372.8 111.15L370.48 109.07L368.07 107.09L365.59 105.2L363.04 103.4L360.42 101.7L357.72 100.1L354.96 98.6L352.14 97.2L349.26 95.92L346.33 94.74L343.33 93.68L340.29 92.73L337.19 91.9L334.05 91.19L330.86 90.6L327.64 90.14L324.37 89.8L321.07 89.6L317.73 89.54L317.69 89.54L314.35 89.61ZM315.08 135.84L313.78 136.03L312.52 136.3L311.28 136.64L310.07 137.06L308.89 137.53L307.75 138.08L306.65 138.68L305.58 139.35L304.56 140.07L303.58 140.85L302.65 141.69L301.77 142.57L300.93 143.5L300.15 144.48L299.43 145.5L298.76 146.57L298.16 147.67L297.62 148.82L297.14 149.99L296.73 151.2L296.38 152.44L296.12 153.71L295.92 155L295.8 156.31L295.76 157.65L295.8 158.99L295.92 160.3L296.12 161.59L296.38 162.86L296.73 164.1L297.14 165.31L297.62 166.48L298.16 167.62L298.76 168.73L299.43 169.79L300.15 170.82L300.93 171.79L301.77 172.73L302.65 173.61L303.58 174.44L304.56 175.22L305.58 175.95L306.65 176.61L307.75 177.22L308.89 177.76L310.07 178.24L311.28 178.65L312.52 178.99L313.78 179.26L315.08 179.46L316.39 179.57L317.73 179.61L319.06 179.57L320.38 179.46L321.67 179.26L322.94 178.99L324.18 178.65L325.39 178.24L326.56 177.76L327.7 177.22L328.81 176.61L329.87 175.95L330.9 175.22L331.87 174.44L332.81 173.61L333.69 172.73L334.52 171.79L335.3 170.82L336.03 169.79L336.69 168.73L337.3 167.62L337.84 166.48L338.32 165.31L338.73 164.1L339.07 162.86L339.34 161.59L339.54 160.3L339.66 158.99L339.7 157.65L339.66 156.31L339.54 155L339.34 153.71L339.07 152.44L338.73 151.2L338.32 149.99L337.84 148.82L337.3 147.67L336.69 146.57L336.03 145.5L335.3 144.48L334.52 143.5L333.69 142.57L332.81 141.69L331.87 140.85L330.9 140.07L329.87 139.35L328.81 138.68L327.7 138.08L326.56 137.53L325.39 137.06L324.18 136.64L322.94 136.3L321.67 136.03L320.38 135.84L319.06 135.72L317.73 135.68L316.39 135.72L315.08 135.84Z" id="k4zcMeGWbJ"></path></defs><g><g><g><use xlink:href="#a2lH9WEZ8C" opacity="1" fill="#ffffff" fill-opacity="1"></use><g><use xlink:href="#a2lH9WEZ8C" opacity="1" fill-opacity="0" stroke="#000000" stroke-width="1" stroke-opacity="0"></use></g></g><g><use xlink:href="#dkKPP63Q3" opacity="1" fill="#ffffff" fill-opacity="1"></use><g><use xlink:href="#dkKPP63Q3" opacity="1" fill-opacity="0" stroke="#000000" stroke-width="1" stroke-opacity="0"></use></g></g><g><use xlink:href="#e5RmQ8nFim" opacity="1" fill="#ffffff" fill-opacity="1"></use><g><use xlink:href="#e5RmQ8nFim" opacity="1" fill-opacity="0" stroke="#000000" stroke-width="1" stroke-opacity="0"></use></g></g><g><use xlink:href="#c1YwESrGdY" opacity="1" fill="#ffffff" fill-opacity="1"></use><g><use xlink:href="#c1YwESrGdY" opacity="1" fill-opacity="0" stroke="#000000" stroke-width="1" stroke-opacity="0"></use></g></g><g><use xlink:href="#k4zcMeGWbJ" opacity="1" fill="#ffffff" fill-opacity="1"></use><g><use xlink:href="#k4zcMeGWbJ" opacity="1" fill-opacity="0" stroke="#000000" stroke-width="1" stroke-opacity="0"></use></g></g></g></g></svg>